<svg width="200" height="38.157" viewBox="0 0 200 38.157" fill="none" xmlns="http://www.w3.org/2000/svg"><path d="m3.872 26.921 -0.276 0.474a5.252 5.252 0 1 0 9.076 5.29l0.276 -0.474a5.252 5.252 0 1 0 -9.076 -5.29" fill="#00A1FF"/><path opacity="0.25" d="m9.691 10.736 12.668 21.94a5.252 5.252 0 0 0 9.099 -5.252L18.79 5.481a5.252 5.252 0 1 0 -9.099 5.255" fill="#00A1FF"/><path opacity="0.25" d="m27.29 10.736 12.668 21.94a5.252 5.252 0 0 0 9.099 -5.252L36.389 5.481a5.252 5.252 0 1 0 -9.099 5.255" fill="#00A1FF"/><path d="m9.694 10.736 7.376 12.775a5.252 5.252 0 0 0 9.099 -5.252L18.793 5.482a5.252 5.252 0 0 0 -9.099 5.252" fill="#00A1FF"/><path d="m27.29 10.735 7.471 12.941a5.252 5.252 0 0 0 9.099 -5.252L36.388 5.481a5.252 5.252 0 1 0 -9.098 5.255" fill="#00A1FF"/>

  <text x="51" y="28" font-family="sans-serif" font-size="25" fill="#111C2D">
    SystemsHRH
  </text>
</svg>
